<?xml version="1.0" encoding="UTF-8"?>
<!-- Generated by Pixelmator Pro 2.4.2 -->
<svg  viewBox="120 0 90 128" xmlns="http://www.w3.org/2000/svg" xmlns:xlink="http://www.w3.org/1999/xlink">
     <path id="TaxMe" fill="#fff" fill-rule="evenodd" stroke="none" d="M 241.998932 86.960449 L 225.185959 86.960449 C 221.345932 86.960449 218.375153 85.893066 216.273514 83.758286 C 214.17189 81.623489 213.121078 78.655655 213.121078 74.854691 L 213.121078 59.234352 C 213.121078 55.38131 214.17189 52.400459 216.273514 50.291702 C 218.375153 48.182945 221.345932 47.128586 225.185959 47.128586 L 231.568649 47.128586 C 235.408676 47.128586 238.392426 48.182945 240.520004 50.291702 C 242.647598 52.400459 243.711349 55.38131 243.711349 59.234352 L 243.711349 69.153267 C 243.711349 70.090485 243.244308 70.559097 242.310287 70.559097 L 221.449722 70.559097 C 220.878922 70.559097 220.593506 70.819427 220.593506 71.340118 L 220.593506 74.698486 C 220.593506 78.499451 222.487534 80.39991 226.275681 80.39991 L 241.998932 80.39991 C 242.932999 80.39991 243.399979 80.868515 243.399979 81.80574 L 243.399979 85.710823 C 243.399979 86.543915 242.932999 86.960449 241.998932 86.960449 Z M 221.449722 65.248184 L 235.38269 65.248184 C 235.901611 65.248184 236.161087 64.987846 236.161087 64.467163 L 236.161087 59.468658 C 236.161087 57.490067 235.720001 56.045204 234.837845 55.13401 C 233.955673 54.222824 232.528671 53.767227 230.556763 53.767227 L 226.275681 53.767227 C 224.303772 53.767227 222.876755 54.222824 221.994598 55.13401 C 221.112427 56.045204 220.671356 57.490067 220.671356 59.468658 L 220.671356 64.467163 C 220.671356 64.987846 220.930801 65.248184 221.449722 65.248184 Z M 193.272446 36.741058 L 201.990265 36.741058 C 202.872452 36.741058 203.313507 37.183632 203.313507 38.068787 L 203.313507 85.632721 C 203.313507 86.517883 202.872452 86.960449 201.990265 86.960449 L 197.164322 86.960449 C 196.282166 86.960449 195.84108 86.517883 195.84108 85.632721 L 195.84108 46.191368 L 195.529724 46.191368 L 185.410797 74.776588 C 185.099472 75.60968 184.528656 76.026215 183.698395 76.026215 L 178.716751 76.026215 C 177.938385 76.026215 177.393509 75.60968 177.082153 74.776588 L 166.729736 46.113266 L 166.418381 46.113266 L 166.418381 85.632721 C 166.418381 86.153404 166.32756 86.504852 166.14595 86.687096 C 165.964325 86.869339 165.614059 86.960449 165.095139 86.960449 L 160.347015 86.960449 C 159.464859 86.960449 159.023773 86.517883 159.023773 85.632721 L 159.023773 38.068787 C 159.023773 37.183632 159.464859 36.741058 160.347015 36.741058 L 169.064865 36.741058 C 169.635696 36.741058 170.050812 37.027435 170.310272 37.600182 L 180.97406 67.747437 L 181.363235 67.747437 L 192.104874 37.600182 C 192.208649 37.027435 192.597839 36.741058 193.272446 36.741058 Z M 127.499458 86.960449 L 121.583778 86.960449 C 120.442169 86.960449 120.156761 86.517883 120.72757 85.632721 L 131.079987 66.654007 L 120.96109 48.456314 C 120.390259 47.571159 120.623779 47.128586 121.661613 47.128586 L 127.655136 47.128586 C 128.641098 47.128586 129.315674 47.571159 129.678909 48.456314 L 135.98378 61.889809 L 136.295135 61.889809 L 142.2108 48.456314 C 142.574066 47.571159 143.222687 47.128586 144.156754 47.128586 L 150.072433 47.128586 C 151.162155 47.128586 151.421631 47.571159 150.8508 48.456314 L 141.043243 66.575912 L 151.629196 85.632721 C 152.148117 86.517883 151.914597 86.960449 150.92865 86.960449 L 144.779465 86.960449 C 143.897278 86.960449 143.274597 86.517883 142.911346 85.632721 L 136.295135 71.808716 L 135.98378 71.808716 L 129.445419 85.632721 C 129.082153 86.517883 128.433533 86.960449 127.499458 86.960449 Z M 98.23243 86.960449 L 95.196754 86.960449 C 91.356728 86.960449 88.385956 85.893066 86.284317 83.758286 C 84.182686 81.623489 83.131889 78.655655 83.131889 74.854691 L 83.131889 59.234352 C 83.131889 55.38131 84.182686 52.400459 86.284317 50.291702 C 88.385956 48.182945 91.356728 47.128586 95.196754 47.128586 L 112.632439 47.128586 C 113.566483 47.128586 114.033524 47.571159 114.033524 48.456314 L 114.033524 85.632721 C 114.033524 86.517883 113.566483 86.960449 112.632439 86.960449 L 107.728645 86.960449 C 106.846481 86.960449 106.405403 86.517883 106.405403 85.632721 L 106.405403 82.82106 L 106.094048 82.82106 C 104.84864 85.580673 102.228134 86.960449 98.23243 86.960449 Z M 106.405403 73.683167 L 106.405403 54.548248 C 106.405403 54.027573 106.119995 53.767227 105.549194 53.767227 L 96.286476 53.767227 C 92.550247 53.767227 90.682175 55.693726 90.682175 59.546761 L 90.682175 74.542282 C 90.682175 78.395325 92.550247 80.321808 96.286476 80.321808 L 100.022705 80.321808 C 104.277855 80.321808 106.405403 78.108948 106.405403 73.683167 Z M 64.606483 86.960449 L 59.702705 86.960449 C 58.768639 86.960449 58.301624 86.517883 58.301624 85.632721 L 58.301624 44.160721 C 58.301624 43.640038 58.042156 43.379707 57.523235 43.379707 L 47.715679 43.379707 C 46.78162 43.379707 46.314594 42.937134 46.314594 42.051979 L 46.314594 38.068787 C 46.314594 37.183632 46.78162 36.741058 47.715679 36.741058 L 76.593521 36.741058 C 77.527565 36.741058 77.994606 37.183632 77.994606 38.068787 L 77.994606 42.051979 C 77.994606 42.937134 77.527565 43.379707 76.593521 43.379707 L 66.78595 43.379707 C 66.215126 43.379707 65.929726 43.640038 65.929726 44.160721 L 65.929726 85.632721 C 65.929726 86.517883 65.488663 86.960449 64.606483 86.960449 Z"/>
</svg>
